<svg width="25" height="36" viewBox="0 0 25 36" fill="none" xmlns="http://www.w3.org/2000/svg">
<circle cx="17" cy="18" r="8" fill="#FE721C"/>
<path d="M0.888 17.624C0.888 15.992 1.264 14.528 2.016 13.232C2.784 11.936 3.816 10.928 5.112 10.208C6.424 9.472 7.856 9.104 9.408 9.104C11.184 9.104 12.76 9.544 14.136 10.424C15.528 11.288 16.536 12.52 17.16 14.12H13.872C13.44 13.24 12.84 12.584 12.072 12.152C11.304 11.72 10.416 11.504 9.408 11.504C8.304 11.504 7.32 11.752 6.456 12.248C5.592 12.744 4.912 13.456 4.416 14.384C3.936 15.312 3.696 16.392 3.696 17.624C3.696 18.856 3.936 19.936 4.416 20.864C4.912 21.792 5.592 22.512 6.456 23.024C7.32 23.52 8.304 23.768 9.408 23.768C10.416 23.768 11.304 23.552 12.072 23.12C12.84 22.688 13.44 22.032 13.872 21.152H17.16C16.536 22.752 15.528 23.984 14.136 24.848C12.76 25.712 11.184 26.144 9.408 26.144C7.84 26.144 6.408 25.784 5.112 25.064C3.816 24.328 2.784 23.312 2.016 22.016C1.264 20.72 0.888 19.256 0.888 17.624Z" fill="white"/>
</svg>
